# AST/ASF file generated using VICON BodyLanguage
# -----------------------------------------------
:version 1.10
:name VICON
:units
  mass 1.0
  length 0.45
  angle deg
:documentation
   .ast/.asf automatically generated from VICON data using
   VICON BodyBuilder and BodyLanguage model FoxedUp or BRILLIANT.MOD
:root
   order TX TY TZ RX RY RZ
   axis XYZ
   position 0 0 0  
   orientation 0 0 0 
:bonedata
  begin
     id 1 
     name lhipjoint
     direction 0.660183 -0.676772 0.325788 
     length 2.75133 
     axis 0 0 0  XYZ
  end
  begin
     id 2 
     name lfemur
     direction 0.34202 -0.939693 0  
     length 7.70317  
     axis 0 0 20  XYZ
    dof rx ry rz
    limits (-160.0 20.0)
           (-70.0 70.0)
           (-60.0 70.0)
  end
  begin
     id 3 
     name ltibia
     direction 0.342105 -0.939662 0   
     length 7.18701   
     axis 0 0 20   XYZ
    dof rx
    limits (-10.0 170.0)
  end
  begin
     id 4 
     name lfoot
     direction 0.14163 -0.389126 0.910232   
     length 2.41719   
     axis -90 7.62852e-016 20   XYZ
    dof rx rz
    limits (-45.0 90.0)
           (-70.0 20.0)
  end
  begin
     id 5 
     name ltoes
     direction 1.53533e-011 -4.21926e-011 1   
     length 1.18611   
     axis -90 7.62852e-016 20   XYZ
    dof rx
    limits (-90.0 20.0)
  end
  begin
     id 6 
     name rhipjoint
     direction -0.6658 -0.67229 0.323631   
     length 2.76968  
     axis 0 0 0  XYZ 
  end
  begin
     id 7 
     name rfemur
     direction -0.34202 -0.939693 0   
     length 7.92547   
     axis 0 0 -20   XYZ
    dof rx ry rz
    limits (-160.0 20.0)
           (-70.0 70.0)
           (-70.0 60.0)
  end
  begin
     id 8 
     name rtibia
     direction -0.342022 -0.939692 0   
     length 7.22641   
     axis 0 0 -20   XYZ
    dof rx
    limits (-10.0 170.0)
 end
 begin
     id 9 
     name rfoot
     direction -0.105675 -0.29034 0.951071   
     length 2.48149  
     axis -90 -7.62852e-016 -20   XYZ
    dof rx rz
    limits (-45.0 90.0)
           (-20.0 70.0)
  end
  begin
     id 10 
     name rtoes
     direction -1.5349e-011 -4.21859e-011 1   
     length 1.23343   
     axis -90 -7.62852e-016 -20   XYZ
    dof rx
    limits (-90.0 20.0)
  end
  begin
     id 11 
     name lowerback
     direction 0.0104173 0.993624 -0.112266   
     length 2.00527   
     axis 0 0 0   XYZ
    dof rx ry rz
    limits (-20.0 45.0)
           (-30.0 30.0)
           (-30.0 30.0)
  end
  begin
     id 12 
     name upperback
     direction 0.00733149 0.999856 -0.0152913   
     length 2.01385   
     axis 0 0 0   XYZ
    dof rx ry rz
    limits (-20.0 45.0)
           (-30.0 30.0)
           (-30.0 30.0)
  end
  begin
     id 13 
     name thorax
     direction 0.0026304 0.999318 0.036841   
     length 2.03734   
     axis 0 0 0   XYZ
    dof rx ry rz
    limits (-20.0 45.0)
           (-30.0 30.0)
           (-30.0 30.0)
  end
  begin
     id 14 
     name lowerneck
     direction 0.0293154 0.998757 0.0403082   
     length 1.65303   
     axis 0 0 0   XYZ
    dof rx ry rz
    limits (-20.0 45.0)
           (-30.0 30.0)
           (-30.0 30.0)
  end
  begin
     id 15 
     name upperneck
     direction -0.0376619 0.998184 -0.0470083   
     length 1.60926   
     axis 0 0 0   XYZ
    dof rx ry rz
    limits (-20.0 45.0)
           (-30.0 30.0)
           (-30.0 30.0)
  end
  begin
     id 16
     name head
     direction -0.0170133 0.999635 -0.0209778  
     length 1.73625  
     axis 0 0 0   XYZ
    dof rx ry rz
    limits (-20.0 45.0)
           (-30.0 30.0)
           (-30.0 30.0)
  end
  begin
     id 17 
     name lclavicle
     direction 0.919857 0.39181 -0.0186333  
     length 3.75313  
     axis 0 0 0   XYZ
    dof ry rz
    limits (-20.0 10.0)
           (0.0 20.0)
  end
  begin
     id 18 
     name lhumerus
     direction 1 -4.48988e-011 1.44029e-027   
     length 5.49313   
     axis 180 -30 -90   XYZ
    dof rx ry rz
    limits (-60.0 90.0)
           (-90.0 90.0)
           (-90.0 90.0)
  end
  begin
     id 19
     name lradius
     direction 1 -4.48924e-011 7.46281e-027   
     length 3.29037   
     axis 180 -30 -90   XYZ
    dof rx
    limits (-10.0 170.0)
  end
  begin
     id 20
     name lwrist
     direction 1 -4.48955e-011 2.19879e-026   
     length 1.64519   
     axis -1.34358e-014 90 90   XYZ
    dof ry
    limits (-180.0 0.0)
 end
  begin
     id 21 
     name lhand
     direction 1 -4.48978e-011 4.39747e-026   
     length 0.729656   
     axis -2.80598e-014 90 90   XYZ
    dof rx rz
    limits (-90.0 90.0)
           (-45.0 45.0)
  end
  begin
     id 22 
     name lfingers
     direction 1 -4.49071e-011 8.79411e-026   
     length 0.588268   
     axis -5.61193e-014 90 90   XYZ
    dof rx
    limits (0.0 90.0)
  end
  begin
     id 23
     name lthumb
     direction 0.707107 -6.34817e-011 0.707107   
     length 0.844638   
     axis -90 45 -9.86923e-015   XYZ
    dof rx rz
    limits (-45.0 45.0)
           (-45.0 45.0)
  end
  begin
     id 24 
     name rclavicle
     direction -0.919898 0.388279 0.0550233   
     length 3.7171  
     axis 0 0 0   XYZ 
    dof ry rz
    limits (-10.0 20.0)
           (-20.0 0.0)
  end
  begin
     id 25 
     name rhumerus
     direction -1 -4.48968e-011 9.98372e-028  
     length 5.23684   
     axis 180 30 90   XYZ
    dof rx ry rz
    limits (-90.0 60.0)
           (-90.0 90.0)
           (-90.0 90.0)
  end
  begin
     id 26 
     name rradius
     direction -1 -4.48956e-011 1.01023e-026   
     length 3.38251   
     axis 180 30 90   XYZ
    dof rx
    limits (-10.0 170.0)
  end
  begin
     id 27 
     name rwrist
     direction -1 -4.4892e-011 2.19886e-026   
     length 1.69126   
     axis -1.34358e-014 -90 -90   XYZ
    dof ry
    limits (-180.0 0.0)
  end
  begin
     id 28
     name rhand
     direction -1 -4.49024e-011 4.39727e-026   
     length 0.691454   
     axis -2.80598e-014 -90 -90   XYZ
    dof rx rz
    limits (-90.0 90.0)
           (-45.0 45.0)
  end
  begin
     id 29
     name rfingers
     direction -1 -4.49097e-011 8.79388e-026   
     length 0.557468   
     axis -5.61193e-014 -90 -90   XYZ
    dof rx
    limits (0.0 90.0)
  end
  begin
     id 30
     name rthumb
     direction -0.707107 -6.34938e-011 0.707107   
     length 0.800416   
     axis -90 -45 9.86923e-015   XYZ
    dof rx rz
    limits (-45.0 45.0)
           (-45.0 45.0)
  end
:hierarchy
  begin
    root lhipjoint rhipjoint lowerback
    lhipjoint lfemur
    lfemur ltibia
    ltibia lfoot
    lfoot ltoes
    rhipjoint rfemur
    rfemur rtibia
    rtibia rfoot
    rfoot rtoes
    lowerback upperback
    upperback thorax
    thorax lowerneck lclavicle rclavicle
    lowerneck upperneck
    upperneck head
    lclavicle lhumerus
    lhumerus lradius
    lradius lwrist
    lwrist lhand lthumb
    lhand lfingers
    rclavicle rhumerus
    rhumerus rradius
    rradius rwrist
    rwrist rhand rthumb
    rhand rfingers
  end

#!OML:ASF H:\BabyWalks\Project 1\Capture day 1\Session 1\baby.ASF
:FULLY-SPECIFIED
:DEGREES
158
root -14.2577 16.0237 -2.30687 97.5722 -85.0678 -112.808
lowerback 13.3585 -0.23049 1.20631
upperback 4.01596 -0.278268 1.24544
thorax -3.26256 -0.221432 0.667536
lowerneck -5.80514 -0.018253 4.35097
upperneck 5.62167 -0.12661 -4.15596
head 2.83398 -0.114721 -2.1324
rclavicle -9.23728e-015 -3.57812e-015
rhumerus 26.9239 1.37779 -64.9843
rradius 73.3006
rwrist 19.66
rhand 24.8961 -22.5044
rfingers 7.12502
rthumb 49.0658 -44.2042
lclavicle -9.23728e-015 -3.57812e-015
lhumerus 27.231 -5.36576 60.8126
lradius 76.4486
lwrist -5.01342
lhand 27.5656 31.0996
lfingers 7.12502
lthumb 51.5056 51.4944
rfemur -0.773363 -12.131 13.2487
rtibia 54.3565
rfoot -31.883 -10.886
rtoes -12.926
lfemur -2.70355 11.665 1.0087
ltibia 54.0486
lfoot -35.6419 -7.74778
ltoes -13.5881
159
root -14.2594 16.0333 -2.3089 96.9408 -84.9037 -112.202
lowerback 13.333 -0.249462 1.36074
upperback 3.98706 -0.279362 1.32438
thorax -3.27894 -0.222224 0.662978
lowerneck -5.62795 -0.0982037 4.5802
upperneck 5.28718 -0.232256 -4.47962
head 2.68665 -0.171926 -2.28041
rclavicle -6.65929e-015 1.21259e-014
rhumerus 26.8974 1.1885 -64.9285
rradius 73.1384
rwrist 19.554
rhand 24.9884 -22.6372
rfingers 7.12502
rthumb 49.1505 -44.2948
lclavicle -6.65929e-015 1.21259e-014
lhumerus 27.1161 -5.23859 60.9388
lradius 76.3402
lwrist -5.06056
lhand 27.5762 31.1615
lfingers 7.12502
lthumb 51.5152 51.5508
rfemur -0.652646 -12.1167 13.464
rtibia 54.1721
rfoot -31.8159 -10.8964
rtoes -12.8778
lfemur -2.6212 11.6887 1.23739
ltibia 53.9131
lfoot -35.5631 -7.8569
ltoes -13.4943
160
root -14.2585 16.0407 -2.30414 95.8086 -85.0427 -111.039
lowerback 13.2829 -0.280089 1.33934
upperback 3.92928 -0.320075 1.2905
thorax -3.31237 -0.240725 0.64599
lowerneck -5.95948 -0.0398875 3.9511
upperneck 5.58197 -0.152838 -3.75532
head 2.84226 -0.123724 -1.92739
rclavicle -2.13694e-015 1.0138e-014
rhumerus 26.7857 0.932944 -64.9304
rradius 73.0597
rwrist 19.6021
rhand 25.1163 -22.7452
rfingers 7.12502
rthumb 49.2679 -44.344
lclavicle -2.13694e-015 1.0138e-014
lhumerus 27.0422 -5.1563 61.0591
lradius 76.22
lwrist -5.13497
lhand 27.6463 31.1184
lfingers 7.12502
lthumb 51.5789 51.4709
rfemur -0.570138 -12.2623 13.273
rtibia 54.017
rfoot -31.7525 -10.8123
rtoes -12.8601
lfemur -2.63955 11.6081 1.03686
ltibia 53.7813
lfoot -35.5077 -7.78031
ltoes -13.4743
161
root -14.2595 16.0505 -2.30531 95.8808 -85.0439 -111.082
lowerback 13.2169 -0.271291 1.35612
upperback 3.88145 -0.303682 1.29266
thorax -3.32672 -0.231416 0.635855
lowerneck -5.99808 -0.062046 3.99876
upperneck 5.52007 -0.18363 -3.83512
head 2.82816 -0.141071 -1.96354
rclavicle 4.52235e-015 1.55052e-014
rhumerus 26.7874 0.67535 -64.9308
rradius 72.897
rwrist 19.4827
rhand 25.2143 -22.8425
rfingers 7.12502
rthumb 49.3578 -44.396
lclavicle 4.52235e-015 1.55052e-014
lhumerus 26.9717 -5.06385 61.1483
lradius 76.1419
lwrist -5.16688
lhand 27.526 31.1328
lfingers 7.12502
lthumb 51.4695 51.5483
rfemur -0.541743 -12.2519 13.2852
rtibia 53.8576
rfoot -31.679 -10.7732
rtoes -12.7639
lfemur -2.61402 11.6542 1.03206
ltibia 53.6669
lfoot -35.4467 -7.80771
ltoes -13.4629
162
root -14.2606 16.0585 -2.30499 95.318 -85.0906 -110.518
lowerback 13.225 -0.285823 1.38729
upperback 3.81572 -0.315173 1.2613
thorax -3.40025 -0.235931 0.587803
lowerneck -6.00348 -0.0810936 3.91512
upperneck 5.45646 -0.210644 -3.71455
head 2.80495 -0.152095 -1.90835
rclavicle -2.62768e-015 -1.66979e-014
rhumerus 26.7369 0.422598 -64.9551
rradius 72.7869
rwrist 19.4927
rhand 25.1684 -23.0444
rfingers 7.12502
rthumb 49.3157 -44.6192
lclavicle -2.62768e-015 -1.66979e-014
lhumerus 26.9209 -4.98763 61.2483
lradius 76.0222
lwrist -5.11607
lhand 27.6057 30.9964
lfingers 7.12502
lthumb 51.542 51.3702
rfemur -0.459105 -12.319 13.2236
rtibia 53.7273
rfoot -31.6272 -10.7505
rtoes -12.8058
lfemur -2.58784 11.6331 0.976125
ltibia 53.562
lfoot -35.3869 -7.83314
ltoes -13.4352
